<?xml version="1.0" standalone="no"?>
<!DOCTYPE svg PUBLIC "-//W3C//DTD SVG 20010904//EN"
 "http://www.w3.org/TR/2001/REC-SVG-20010904/DTD/svg10.dtd">
<svg version="1.0" xmlns="http://www.w3.org/2000/svg"
 width="128.000000pt" height="128.000000pt" viewBox="0 0 128.000000 128.000000"
 preserveAspectRatio="xMidYMid meet">
<metadata>
Created by potrace 1.14, written by Peter Selinger 2001-2017
</metadata>
<g transform="translate(0.000000,128.000000) scale(0.100000,-0.100000)"
fill="#000000" stroke="none">
<path d="M765 1273 c-220 -45 -394 -190 -452 -376 -17 -56 -18 -57 -54 -57
-20 0 -41 -6 -46 -12 -15 -20 -43 -109 -37 -119 3 -5 26 -9 52 -9 l48 0 1 -56
c1 -34 -3 -57 -11 -59 -6 -2 -23 -6 -37 -9 -25 -5 -41 -37 -54 -108 -4 -21 -7
-20 64 -24 30 -1 57 -7 60 -11 4 -4 15 -33 26 -63 25 -75 95 -179 157 -234
109 -96 238 -142 373 -133 85 6 220 38 238 56 13 13 19 229 6 236 -4 3 -37
-11 -72 -30 -148 -81 -263 -81 -362 -1 -39 33 -105 139 -105 170 0 8 51 10
162 9 90 -1 173 0 185 3 15 3 27 20 42 60 12 30 19 60 16 65 -4 5 -99 9 -219
9 l-214 0 -3 33 c-2 17 -3 44 -1 60 l3 27 218 0 c159 0 221 3 233 13 24 19 51
109 36 119 -7 4 -112 7 -232 8 -120 0 -221 2 -224 5 -9 9 34 89 67 127 16 19
56 47 88 64 50 25 69 29 138 29 60 0 91 -6 127 -22 61 -28 70 -20 97 81 24 89
22 109 -17 125 -65 26 -225 39 -297 24z"/>
</g>
</svg>
